/* XPM */
static char *_e1aee08605c4c26903f3de84cb5c9f9wJkbUj7MOkUE4Vsj[] = {
/* columns rows colors chars-per-pixel */
"64 64 240 2 ",
"   c #0D070E",
".  c #1B1317",
"X  c #271B1E",
"o  c #3D1B1B",
"O  c #171427",
"+  c #130E30",
"@  c #1B1837",
"#  c #231D23",
"$  c #291D23",
"%  c #221E3D",
"&  c #341F33",
"*  c #282228",
"=  c #2B242B",
"-  c #372428",
";  c #34252B",
":  c #3C2A2E",
">  c #2C2833",
",  c #342B33",
"<  c #382A36",
"1  c #342D3A",
"2  c #3A3038",
"3  c #3B313E",
"4  c #4E272A",
"5  c #482D35",
"6  c #42333B",
"7  c #4A363A",
"8  c #4C353B",
"9  c #55373D",
"0  c #782A32",
"q  c #231E43",
"w  c #221E4A",
"e  c #262244",
"r  c #2A2445",
"t  c #29244B",
"y  c #2B254C",
"u  c #342B49",
"i  c #3B3547",
"p  c #2E2953",
"a  c #2C2859",
"s  c #322D54",
"d  c #332C5C",
"f  c #38335C",
"g  c #362E61",
"h  c #353163",
"j  c #393364",
"k  c #3B3866",
"l  c #3A346C",
"z  c #3D3870",
"x  c #483948",
"c  c #553D46",
"v  c #4B3F53",
"b  c #6E3A44",
"n  c #40396A",
"m  c #4C404E",
"M  c #59424C",
"N  c #4D415A",
"B  c #584456",
"V  c #644249",
"C  c #76484A",
"Z  c #674A57",
"A  c #784C55",
"S  c #68525C",
"D  c #7B545E",
"F  c #5A4C67",
"G  c #50496F",
"H  c #634D63",
"J  c #695367",
"K  c #775665",
"L  c #685975",
"P  c #795F75",
"I  c #796379",
"U  c #833A3D",
"Y  c #9D3B51",
"T  c #8B4A53",
"R  c #885459",
"E  c #985758",
"W  c #935B5C",
"Q  c #A5555E",
"!  c #8A5A64",
"~  c #965C64",
"^  c #855F72",
"/  c #A95A65",
"(  c #8E636F",
")  c #9D6264",
"_  c #94616B",
"`  c #9B636B",
"'  c #85667B",
"]  c #986976",
"[  c #A36265",
"{  c #A5656B",
"}  c #AA646A",
"|  c #A46A6D",
" . c #AB6B6D",
".. c #B4696D",
"X. c #AC6C73",
"o. c #A76B78",
"O. c #B36D73",
"+. c #B66F79",
"@. c #AA7177",
"#. c #B37275",
"$. c #B4747A",
"%. c #B8777A",
"&. c #BB767C",
"*. c #BA797D",
"=. c #D05878",
"-. c #C36A7A",
";. c #C2777C",
":. c #5E5A88",
">. c #7A6682",
",. c #736B91",
"<. c #676CA5",
"1. c #856C88",
"2. c #8C6D89",
"3. c #847289",
"4. c #8C728C",
"5. c #98738A",
"6. c #887595",
"7. c #977993",
"8. c #947B9B",
"9. c #A86E81",
"0. c #AB7583",
"q. c #A8758A",
"w. c #AC798B",
"e. c #B87686",
"r. c #B57A84",
"t. c #BC7C83",
"y. c #BB7D8A",
"u. c #A57B94",
"i. c #BA7D91",
"p. c #8075A8",
"a. c #C77A87",
"s. c #C27D84",
"d. c #CA748E",
"f. c #CB7D8A",
"g. c #D2788B",
"h. c #D67895",
"j. c #E06F99",
"k. c #DB76A4",
"l. c #BE8186",
"z. c #BD828A",
"x. c #AA829F",
"c. c #B98697",
"v. c #9B83A4",
"b. c #9986A9",
"n. c #928CB0",
"m. c #998DB7",
"M. c #9D8CB4",
"N. c #B88BA5",
"B. c #B28DA9",
"V. c #A68EB8",
"C. c #A693BA",
"Z. c #C58185",
"A. c #C3848C",
"S. c #CB878B",
"D. c #CB838C",
"F. c #C4888D",
"G. c #C48491",
"H. c #CC8691",
"J. c #C58B93",
"K. c #CB8C94",
"L. c #C98699",
"P. c #C58D9A",
"I. c #CB8E9A",
"U. c #D18995",
"Y. c #D58A99",
"T. c #D28C9A",
"R. c #CB9197",
"E. c #CC939C",
"W. c #C8959E",
"Q. c #D3929C",
"!. c #DA929D",
"~. c #C88EA1",
"^. c #D58FA2",
"/. c #DA89A2",
"(. c #CD95A3",
"). c #CC98A4",
"_. c #C895A8",
"`. c #D395A3",
"'. c #DB94A4",
"]. c #D19AA4",
"[. c #D39CAA",
"{. c #DA98A9",
"}. c #D29BB6",
"|. c #E593A8",
" X c #E496AC",
".X c #E29CB4",
"XX c #D3A0AB",
"oX c #D5A4B4",
"OX c #D9A6B8",
"+X c #9A94CA",
"@X c #B089C3",
"#X c #AB99C4",
"$X c #B29CC6",
"%X c #B4A2CE",
"&X c #BBA6CC",
"*X c #AFA4D6",
"=X c #B5A4D1",
"-X c #BAA7D2",
";X c #BBAAD4",
":X c #BCADD9",
">X c #BEB1DD",
",X c #B6AAE1",
"<X c #BDB3E3",
"1X c #C4A9CD",
"2X c #C3A9D8",
"3X c #C5B2DB",
"4X c #C4B3DD",
"5X c #C4B5E3",
"6X c #C5B8E5",
"7X c #C7B9E7",
"8X c #CBBBE5",
"9X c #CBBDEB",
"0X c #CEBEED",
"qX c #C7C1E4",
"wX c #CEC2EE",
"eX c #D2C2EC",
"rX c #C5C0F4",
"tX c #CEC4F2",
"yX c #D3C6F2",
"uX c #D9C7F3",
"iX c #D5CAF5",
"pX c #D9CCF7",
"aX c #D6CDF9",
"sX c #D9CEF9",
"dX c #D4D2FF",
"fX c #DED3FD",
"gX c #E1D6FE",
"hX c #E3D9FD",
"jX c #E1D9FE",
"kX c #E4D8FD",
"lX c #E5D9FD",
"zX c #E4DAFD",
"xX c #E5DAFD",
"cX c #E6DBFD",
"vX c #E4D8FE",
"bX c #E4DAFE",
"nX c #E6DAFE",
"mX c #E5DCFE",
"MX c #E6DCFE",
"NX c #E8DCFF",
/* pixels */
"fXfXfXfXsXfXgXfXgXgXgXgXfXgXgXgXhXfXgXgXhXhXhXhXhXhXhXhXlXhXfXgXhXfXhXfXfXhXmXlXlXmXlXmXlXlXlXhXlXgXlXhXhXlXgXvXvXvXlXgXgXgXgXgX",
"fXfXfXfXfXfXfXfXfXgXgXgXfXgXgXgXgXgXfXfXhXhXhXhXhXhXhXhXhXhXgXhXhXhXhXhXfXhXmXhXlXmXmXlXgXlXhXlXhXgXhXlXlXlXlXlXgXvXgXhXlXlXgXgX",
"fXfXsXfXfXfXfXfXgXgXgXgXgXgXgXgXhXfXfXgXhXhXhXhXhXhXhXhXlXmXgXhXhXhXhXfXfXlXlXmXmXlXlXmXlXlXhXlXhXhXhXgXgXlXgXlXvXvXvXlXvXvXlXgX",
"fXfXfXfXfXgXfXgXgXfXgXgXgXgXgXgXfXgXhXhXhXhXhXhXhXhXmXhXmXlXfXhXhXhXfXfXfXmXmXlXlXlXmXlXhXmXlXhXlXlXlXvXlXlXlXhXvXvXlXhXgXvXgXlX",
"fXsXfXfXsXgXfXfXgXgXgXgXgXgXgXgXhXgXgXfXhXhXhXhXhXhXmXlXmXhXfXhXhXhXhXfXgXmXlXmXlXmXmXmXlXmXmXlXlXhXhXhXlXlXlXlXvXlXvXvXvXgXvXlX",
"gXsXfXgXfXgXgXgXgXgXgXgXgXgXgXgXfXgXhXgXhXhXhXhXmXlXmXlXmXhXgXhXhXhXhXgXgXlXlXmXmXNXlXlXmXlXlXlXlXmXlXlXlXhXlXlXlXlXlXvXlXvXgXgX",
"gXfXsXfXgXfXgXgXgXgXgXgXgXgXgXgXhXfXhXhXhXgXhXmXhXhXmXlXlXmXgXhXmXlXhXgXfXmXlXmXmXlXmXhXlXlXlXmXhXmXlXhXhXlXlXgXlXvXlXvXlXhXgXlX",
"fXfXgXfXgXfXfXgXgXlXgXgXgXfXgXgXgXfXhXhXfXhXmXfXhXlXhXmXlXhXgXgXhXhXhXhXfXhXNXmXmXlXmXmXhXhXmXlXmXlXlXlXlXhXhXlXvXlXlXlXlXlXgXgX",
"gXfXfXfXfXfXgXgXlXgXhXgXgXfXhXgXhXfXhXhXfXhXhXhXlXmXlXmXhXmXgXhXhXhXfXfXfXmXlXlXmXmXmXNXmXlXlXmXcXcXlXcXlXlXlXlXlXlXlXlXlXlXgXlX",
"fXfXgXfXgXgXgXgXgXgXgXgXgXgXhXfXfXhXhXhXhXhXhXhXhXmXlXlXlXhXhXgXhXhXfXhXgXlXmXmXmXhXmXlXmXhXhXmXcXcXcXcXcXlXlXcXlXlXlXlXlXlXgXlX",
"fXfXfXgXgXgXgXgXgXgXlXgXfXgXfXgXgXhXfXhXhXhXhXhXhXlXhXmXlXmXhXgXhXmXhXfXfXlXmXNXmXhXlXmXmXNXhXlXcXlXlXcXcXcXlXlXlXmXNXlXlXlXlXlX",
"fXfXgXfXgXfXgXgXlXgXhXgXgXhXhXfXgXhXhXhXhXhXhXhXhXmXlXmXhXlXhXgXhXhXhXfXfXmXNXlXNXmXhXNXmXmXhXlXlXmXlXNXlXcXlXNXlXNXlXlXlXlXgXlX",
"fXfXgXgXgXhXfXgXgXhXhXhXgXgXfXhXhXgXfXhXhXhXhXhXhXhXhXhXmXhXmXhXmXhXgXfXfXlXNXmXmXNXmXmXlXmXNXlXmXlXNXlXcXlXNXlXlXlXlXlXlXlXNXgX",
"fXfXgXgXgXgXgXgXgXhXhXgXhXgXfXhXfXhXhXfXhXfXhXhXhXhXlXmXhXmXgXhXhXhXgXfXfXmXlXmXNXmXmXlXlXNXmXmXlXmXcXcXcXcXcXcXNXNXlXNXlXlXNXlX",
"fXgXfXgXgXgXgXhXhXhXhXgXgXgXhXhXfXfXfXhXhXhXhXfXhXhXhXhXhXhXhXhXhXhXgXfXaXgXmXmXmXNXhXmXmXmXmXmXlXmXcXcXcXcXlXcXmXlXlXlXNXlXlXlX",
"fXfXgXfXgXgXgXfXgXhXlXfXgXgXhXfXfXgXhXmXfXhXhXfXgXfXfXyX4X,.6XiXgXgXfXfXfXhXlXlXhXmXlXlXlXlXlXlXmXlXlXmXNXlXcXNXlXNXNXlXlXlXlXlX",
"fXgXfXgXgXgXfXgXgXfXgXgXgXgXgXgXfXgXgXgXgXfXfXsXsXiX8XF N i i N F F G #XyXfXhXlXmXlXlXlXmXlXhXmXlXlXlXmXcXlXcXcXcXcXlXcXlXlXlXNX",
"fXgXgXgXgXgXgXgXgXgXhXgXgXgXfXgXgXfXfXfXfXsXuXiX8XL F N > 3 1 = = m L i J %XfXmXlXNXlXlXlXlXmXlXlXmXlXlXcXcXcXNXNXcXlXcXlXcXlXlX",
"fXfXgXgXgXgXlXgXlXgXgXgXgXgXgXfXfXsXsXiXsXyXL 6.G N * 2 B ! J H m i = * N F S :XgXhXlXmXlXmXlXlXlXlXmXlXcXNXcXlXcXcXcXlXlXlXcXcX",
"fXgXgXfXgXgXgXgXgXgXgXgXgXgXgXfXsXsXsXuXyX6.F > # $ x ~ R o.S A M M , = 1 * m V 1.sXlXlXmXlXmXhXlXlXmXlXcXcXNXcXcXcXNXlXlXlXlXlX",
"gXgXgXgXgXgXgXgXgXgXgXgXgXhXgXsXaXyXeX4X-XF x < Z | X.$.&.*.X.*.&.#.*.o.c B x O c $XaXhXlXlXmXlXlXlXlXmXlXNXNXcXcXlXcXcXlXlXlXlX",
"fXuXgXfXfXfXfXgXgXgXfXgXgXsXsXaXyXwX9X-XJ : x R  .#.&.&.;.S.H.S.Z.S.F.*.#.R B x $ c V.aXgXlXlXlXmXlXlXlXlXmXcXlXcXcXcXcXNXlXlXlX",
"gXuXgXuXfXfXfXgXgXgXgXfXfXsXsXyXwX5X:Xv.O & V _  .&.Z.Z.S.D.T.H.D.H.S.S.Z.X.D = X ; c 6.I lXmXlXNXlXlXlXNXNXcXcXlXNXNXcXNXlXlXlX",
"fXgXfXgXgXgXgXgXgXgXgXgXsXsXyXyX9X;Xb.M X c ] | %.;.a.a.D.H.T.H.S.K.S.S.Z.e.%.K = v 6 L 5X8XlXlXlXlXvXlXNXlXcXcXNXcXcXNXcXlXlXNX",
"gXgXgXgXgXgXuXgXgXgXgXuXsXiXyX8X:X$X1.* ; ! |  ...$.Z.-.f.f.U.H.S.S.S.S.Z.Z.t.@.H 2 , B #XeX:XlXlXlXlXcXcXlXlXNXlXNXNXlXcXlXlXlX",
"uXgXgXgXgXgXgXgXgXgXgXfXuXyX9X8X-XC.S = M ] |  .O.*.D.S.H.L.U.L.Q.Y.Q.K.S.Z.z.r.c = , x Z S u.pXlXlXlXlXNXNXlXNXlXlXNXlXlXcXlXlX",
"gXgXgXgXgXgXgXgXfXfXfXuXiXyX8X4X#Xv.6 , B ` X.O.*.y.R.e.G.~.{.^.i.c.c._.r.c.G.z.R : x N 6 $X; &XgXlXlXlXNXlXNXlXNXNXNXlXNXNXcXlX",
"gXuXgXfXgXuXgXgXfXgXfXuXyX0X7X-XC.4.; = M ~ @.0.] 1 < ; 2._.}.u.v I L u i u v J.Z.c X Z c 5.K 0XeXlXlXlXlXlXlXlXNXcXNXlXlXcXlXNX",
"gXgXfXfXgXuXgXgXgXfXfXuX0X0X5X=XI 1.* , V 0.2.= i 1 > M u.c.}.c.D D R a.w.w.' x t.^ $ * J c 1X0X8XlXlXlXcXcXlXlXlXcXNXcXlXNXlXlX",
"fXfXgXgXgXgXgXgXgXfXsXuX0X0X:X#Xv.9 * * D 0.= V c.A.D.-.#.r.F.D.D.Q.a.O.D.H.K.w.i.o.# 2 x S -X4X1XpX0XlXlXlXcXlXcXcXcXNXlXlXNXNX",
"fXuXgXfXgXgXuXgXfXuXuXuX0X5X-X#X8.9 > # ! I ] ..;./ / G.} E a.g.s.A.W . . { O.T.G.r.$ . v c V.V 1XuXsXNXlXlXcXlXcXlXNXlXlXlXlXlX",
"fXgXfXgXgXgXgXgXfXfXuXuX0X7X-XV.b.c X . ( 7.#.b $ X > p.E / g.H.f.{ @Xo 4 2X4 D.P.c.v : v c B 1X4.uXlXlXlXlXlXlXlXcXNXNXNXNXlXlX",
"fXfXfXgXfXfXgXgXgXsXsXiX9X5X=Xm.b.Z # # ] o.~ Z @Xo _ } } 9.H.L.L.D.+.s.0.+.e.A.K.P.8 * B M ' 8XfXuXgXlXlXlXlXlXlXlXmXNXlXNXlXlX",
"fXsXfXfXfXgXsXfXgXsXsXyX8X5X=XC.8.' B = u.0.+./ ~ / #.;./ 9.^./.Y.Y.Y.Y.!.U.T.T.P.~.( 6 B M V.1X1X3XlXlXlXlXlXlXhXlXlXlXmXlXlXlX",
"pXfXfXfXgXfXfXgXgXsXsXyXwX5X=XC.v.4.5 1 B.q.r.i.f.f.a.D.O.e.'.{.{.Y.{.'.!.!.'.'.(.~.N.i.a.L 8.8XeX8XgXhXlXvXlXlXlXlXlXlXcXcXlXmX",
"fXgXgXfXfXfXgXfXgXfXsXiX9X5X=X#Xv.8.8 i N.u.y.f.f.D.Y.{.f.  d.9.o U..X.X'.{.!.Q.].).N.f./.R V.2X8X0XsXlXlXlXlXlXlXlXlXlXcXNXlXlX",
"pXfXgXfXgXgXgXfXsXfXsXsX0X8X:X#Xb.3.e.! B.u.e.a.f.U./.Y.Y d.+.~.a.h.!..X X X{.{.(._.c.oXg.|.$X2X4XpXgXgXlXlXmXlXlXlXlXNXlXcXlXNX",
"fXfXpXfXfXsXsXgXgXfXsXsXyX9X:X#Xb.3.d.U x.w.r.s.D.H.`.;.+.~ ~ e.A R H.U.{.{.{.XX[._.N.(..X/.8X$XuXNXgXlXlXlXlXlXlXlXlXlXNXlXlXlX",
"fXfXfXgXgXgXgXgXgXsXsXsXiX9X5X$XM.6.Q / 7.x.w.s.D.D.s.+.b U g.h.U.g.{ Z Q.!.'.XX)._.N.'./.D.%X4X$X8XNXgXlXlXgXlXlXlXlXcXlXlXlXlX",
"fXpXfXfXsXgXsXsXgXgXfXsXyX0X5X=XV.2./ 0 o.x.w.y.a.;.E 9 =...-.=.h.-.-.t._ S.!.XX)._.~.!.L.0.$X9X1XpXlXlXlXlXlXlXlXlXlXcXlXNXlXlX",
"fXpXsXfXfXfXgXfXfXfXfXsXiXeX5X-Xm.1.q.~ / x.w.y.f.o.] Q Y Y =.=.j.g.d.0 t.O.Q.].).).c.{.^.x.V.2X0XgXhXlXlXlXhXlXlXlXmXlXNXlXlXlX",
"fXfXfXfXfXfXfXfXfXfXsXsXiX9X5X%XM.P P e./ 5.q.w.t.E Z.E / =.k.k.k.j.D.G.R.T.Q.].]._.5 /..X' &X#XgXgXlXlXhXhXlXmXlXlXmXlXlXlXlXlX",
"pXsXfXfXfXgXfXgXfXfXfXaXyX9X5X=X8.1.B y.$.Z q.0.@.s.*.O...X.~ A T } U.U.E.K.Q.).[._., i S 7.8XiXgXhXhXmXmXhXlXhXlXlXlXlXlXlXlXlX",
"fXfXfXfXfXfXfXpXfXfXfXiXyX9X:XV.2.b 4 X 5   ] o.0.&.%.*.s.a.H.`.!.Q.Q.R.T.R.R.W.W.N.1 3 C V.9XiXgXhXgXlXlXlXhXlXlXlXlXmXlXlXlXlX",
"sXfXsXfXfXfXfXfXfXsXpXpXeX:X%X] C 5 : V ; . ! ] o.@.@.#.%.S.D.`.T.T.T.R.R.K.R.W.c.B.1 1 u.wXwXsXgXgXhXlXhXhXhXlXhXlXlXhXlXlXlXlX",
"fXsXfXfXfXpXfXsXfXpXiXwXqX] C.] ' K M : 6 $ C ! ( @.@.$.y.Z.D.[.}.(.r.e.J.z.R.c.N._., , Z tXfXfXgXgXhXhXhXhXhXhXlXlXhXlXlXNXvXlX",
"sXsXsXfXfXfXsXsXpXyXeX4XC.%X5.5.K 8 S 6 x , R R ! R R R ~ _ r.t.+.9.w.^ ( @.0.c.P.~.i 7 F fXfXhXhXfXgXhXhXhXmXhXlXhXhXvXgXvXlXlX",
"fXsXsXpXfXsXfXuXiXeX8X%X' 5.v.' 4.D 5 X # 7 W ) ! R 8 5 M V V  .@.b M i x _ z.c.J.W.* N m.iXfXfXfXhXhXhXhXlXgXlXgXlXlXvXvXvXvXvX",
"sXfXsXsXsXsXiXiXuXwX4XV.C.C.8.4.V D , S B 7 W  .) W R ; - ; 5 - 2 ; 5 9 @.r.l.J.K.W.; <X$X6XfXfXhXfXhXfXmXmXzXzXzXfXmXhXhXmXhXzX",
"sXsXsXsXsXsXiXiXyX9X5X%XV.b.v.4.^ I - 4 7 6 )  .| ) R R T C C [ W | $.*.z.z.l.F.R.P.x =X<XaXfXfXfXhXhXhXmXfXzXfXfXmXmXfXhXhXcXfX",
"sXsXsXfXsXsXaXyXwX7X5X:X%XM.M.* >.P M S : M )  . . .) W W | X.#.*.*.l.z.z.z.F.D.W.K.v.C.6XiXfXfXfXfXhXhXmXmXfXmXmXzXzXhXhXmXzXzX",
"sXsXsXsXsXaXiXyXwX8X7X:X=X$Xb.v.' I D S V X |  .#. .| [ ) @.#.A.Z.F.F.F.l.F.R.R.E.R.N.>XaXfXfXfXhXfXhXhXfXmXmXfXmXmXzXfXhXgXhXhX",
"sXsXsXfXsXaXiXyXwXwX9X<X>X=X#Xb.v.2.6.>.7 ; ) #.$... .) [ [ #.t.F.K.K.F.F.K.R.E.E.R.W.yXfXaXfXfXhXfXmXfXmXfXfXmXmXfXfXhXgXhXhXgX",
"sXsXsXdXaXaXaXyXwXwX9X7X5X:X%Xb.b.L v.>.I >.` #.$.*.$. .|  .r.z.F.R.K.J.J.F.E.Q.E.E.P.O % e rXfXfXfXmXfXfXmXmXfXmXhXhXgXgXhXgXhX",
"aXaXaXaXsXaXaXiXtXtXwX9X7X<X-X%XS C.m.,.e . ` #.*.t.;.%. .#.l.P.`.).).K.K.R.Q.).E.R.P.z.@ O d fXfXmXfXmXfXmXfXmXhXgXhXhXhXhXgXgX",
"sXaXaXfXaXaXaXaXiXiXtXwX9X7X:X:XI #Xm.e e 7 ) [ *.s.F.A.O.*.z.).R.).[.(.R.W.XX].].R.z.z.^   a aXfXfXmXfXfXmXmXdXfXfXhXhXfXhXgXgX",
"aXaXaXdXaXaXaXaXiXtXtXtX9X5X:X%X%XI f a O W W %.*.t.s.J.*.*.z.J.~.(.E.E.).].XXE.E.K.l.S.t.% <.a <.fXfXfXfXhXfXhXfXhXfXhXfXfXfXfX",
"aXiXaXaXaXaXaXiXiXiXtXtX9X6X:X*X#Xm.s u > ) W *.l.l.t.J.J.l.P.R.I.K.E.(.W.XXoXE.W.R.z.F.z.h g +Xd dXfXlXfXhXfXfXhXfXfXhXmXhXmXfX",
"aXaXaXaXaXaXaXiXiXiXtXwX6X<X:X%X:Xa p s @ | R %.F.z.$.F.R.W.W.).K.R.E.E.XXXX].R.P.P.z.G.; z z l h ,XrXmXfXmXfXhXfXfXmXhXhXfXzXfX",
"aXaXaXaXaXaXaXaXaXtXtXqX<X>X:X+ e k e s r | W %.F.K.t.*.J.).W.R.R.P.E.).oXXXE.W.R.K.J.L.y l g h l h k +Xk fXfXgXfXfXfXmXfXfXhXfX",
"aXaXaXaXaXaXaXaXtXtXrX6X<Xs s f p p y a y S.W $.K.P.J.l.*.[.[.(.R.E.).`.OXE.W.(.E.J.L.6 h h p g l l h > y G cXfXfXfXfXfXfXhXfXhX",
"aXaXaXiXiXaXtXtXtXwX7XwXr q e q a t y p p q { $.K.~.W.l.t.K.[.R.XX).R.K.OXE.].[.R.P.I.u l d d d a l h d z e % <XfXfXfXfXhXfXfXfX",
"iXiXaXiXtXiXtXtXwX6Xp e e t O w n.+ G l :.C.u y.I.].].A.A.F.XX].oXoX(.I.].S.[.[.P.] d d g a h h l h h +Xf e r e e :.fXfXfXgXgXgX",
"iXaXyXtXtXtXwX9X:.t y e @ @ O n.p e + @ :Xy a k I.(.I.J.K.K.oXE.OXOXF.[.].`.[.[.e.d g u r j h j h z l a y t r e p k <XqXfXfXfXfX"
};
