/* XPM */
static char *_df1da9c0a264bf1cbb224403c2ee538friMwIPVA7en0r8F[] = {
/* columns rows colors chars-per-pixel */
"30 30 122 2 ",
"   c #131313",
".  c gray30",
"X  c #5B5B5B",
"o  c #5A5A5A",
"O  c gray32",
"+  c #484848",
"@  c #282828",
"#  c #0C0C0C",
"$  c #4C4C4C",
"%  c #494949",
"&  c #434343",
"*  c #353535",
"=  c gray11",
"-  c #7B7B7B",
";  c #7C7C7C",
":  c gray50",
">  c #7E7E7E",
",  c gray48",
"<  c gray49",
"1  c #6A6A6A",
"2  c #606060",
"3  c gray45",
"4  c gray36",
"5  c #585858",
"6  c gray17",
"7  c gray37",
"8  c #797979",
"9  c #777777",
"0  c gray44",
"q  c gray29",
"w  c gray47",
"e  c #727272",
"r  c gray22",
"t  c gray10",
"y  c #717171",
"u  c gray39",
"i  c #646464",
"p  c #5F5F5F",
"a  c #222222",
"s  c #6F6F6F",
"d  c DimGray",
"f  c gray46",
"g  c gray43",
"h  c #6C6C6C",
"j  c #515151",
"k  c #202020",
"l  c gray9",
"z  c #4E4E4E",
"x  c #464646",
"c  c #444444",
"v  c #4B4B4B",
"b  c gray20",
"n  c #1D1D1D",
"m  c gray7",
"M  c #686868",
"N  c #565656",
"B  c #5D5D5D",
"V  c gray5",
"C  c #181818",
"Z  c #111111",
"A  c #040404",
"S  c #676767",
"D  c gray34",
"F  c gray2",
"G  c gray31",
"H  c #626262",
"J  c gray40",
"K  c gray25",
"L  c gray23",
"P  c #3C3C3C",
"I  c #414141",
"U  c #343434",
"Y  c gray19",
"T  c gray16",
"R  c gray14",
"E  c #161616",
"W  c #555555",
"Q  c gray42",
"!  c gray38",
"~  c #505050",
"^  c gray33",
"/  c gray21",
"(  c #2C2C2C",
")  c #313131",
"_  c #535353",
"`  c #747474",
"'  c gray18",
"]  c gray57",
"[  c #808080",
"{  c #232323",
"}  c #1E1E1E",
"|  c gray13",
" . c #272727",
".. c #1B1B1B",
"X. c gray15",
"o. c #3A3A3A",
"O. c gray27",
"+. c gray35",
"@. c gray8",
"#. c #323232",
"$. c #2F2F2F",
"%. c #252525",
"&. c #2D2D2D",
"*. c #2A2A2A",
"=. c gray28",
"-. c gray26",
";. c #888888",
":. c #6D6D6D",
">. c gray6",
",. c #0E0E0E",
"<. c #070707",
"1. c #101010",
"2. c #848484",
"3. c #767676",
"4. c #656565",
"5. c #3E3E3E",
"6. c #191919",
"7. c gray53",
"8. c #3F3F3F",
"9. c gray4",
"0. c gray12",
"q. c #060606",
/* pixels */
"          . X X X X X X X X X X o O + @ #                   ",
"$ % & * = - ; - : > , < 1 2 3 4 X X 5 6   7 8 9 0 o $ q q q ",
"w e 2 r t y u i 2 i p 7 7 4 2 4 2 u & a   s 3 d e f 0 y y g ",
"h 7 j k l z % x c x c v q . + c % q b n m g M 4 5 N 4 p 5 B ",
"$ + 6 t V C                         Z A l $ S 5 B D v + q x ",
"C l # F t & q q G o H h J b K 0 f f e L = P I U Y T R n E E ",
"V V V Z W s Q H H S d M ! * ~ ; ! 5 o Y           m V V V V ",
"% % I k % h 5 i ^ 5 p 2 o / ~ 4 X 7 5 ( ) M _ $ % % % % % % ",
"` g p k ' p 4 N z z D 2 4 U x 7 $ x P R h ] 8 8 3 3 < [ [ [ ",
"7 4 . k k ) { { t C } { { a |  ...V V V J S 7 o o N 7 X W 7 ",
"o O L a * ' 6 R } } } X.R Y o.$ O.L T # + 2 ^ 7 ^ N X +.O 4 ",
"D o / @ ` ; , < ; ; ; , , - - ; ; S P @.@ j N $ N W v $ j X ",
"#.$.%. .2 5 D 7 N 5 N X X 4 X N 4 B &.  a *.T @ k ....l } *.",
"E n T | =.W D 4 j +.W N 4 5 j z D +.(   -.H 5 O % O.O.* a   ",
"v ;.s t b O W 5 D ^ j G D 4 W + W +.T   o i f ; - g g , h k ",
":.S 4 C C ( j 4 j +.D o +.+.D W $ W | >.~ 7 5 5 4 4 B 4 q k ",
"X j q = k E     t *.*.*.*.*.*.P =.-.n ,.O.W 4 ^ +.p o o % k ",
"( 6 ' r r r r r X.l # <.V ,.,.E ....1.m @ { * ' ) #.) Y T = ",
":.2.` 3 y J i d 7 P Z m d f f f 3.3.~ o.Y  .R a a a a a k = ",
"1 4.p X +.W +.4 ^ 5.V # w w s s g d 3 [ , 8 , w 9 3.; 8 +.C ",
"H M 7 B 4 5 5 ^ +.P l 6.- 4.5 ^ 5 +.! u u 2 e 0 0 :.y e I V ",
"^ 4 4 7 7 4 5 o 4 5.t ( 7.H +.W 4 ! +.p ! 4 +.D 2 4 7 7 * V ",
"*.t } o.o.8.P 8.P T t   ;.i o 5 D N O B p W 4 5 _ ~ 5 O U V ",
"k k C A 9.V V V V V 9.# ~ q x =.q 5 p _ _ W j 5 +.+.^ W * V ",
"-.w w 3.N & 6 | | 0.n ..k k ..    n T 6 *.*.*.*.*.*.*.*.t Z ",
"% w H e , ; 9 w w ` s S X ^ ~ ( k  .6 6 6 } } n = t 6.C = k ",
"% e p +.4 p D N O D D p u h 2 l k N 8 h d Q :.J d i 4.u z k ",
"O.P Y ' ) #.) Y ' Y Y ) Y #.( = Z ^ h i 2 2 p 2 2 u 2 p q Z ",
"X.@.# q.q.q.q.q.q.q.q.q.q.q.q.q.q.T Y @ *.r =.+ + + + c U V ",
"k k k k k k k k k k k k k k k k k k k k k k V V V V V V V @."
};
