/* XPM */
static char *c05ba64b00af43dfe35796d582f2a3a1NAKVQbUPYxyIhcLB[] = {
/* columns rows colors chars-per-pixel */
"30 30 210 2 ",
"   c #2E2E1C",
".  c #373718",
"X  c #242424",
"o  c #2B2B2B",
"O  c #262729",
"+  c #33332C",
"@  c #3B3B2B",
"#  c #363623",
"$  c #2F2F30",
"%  c #343434",
"&  c #3A3A34",
"*  c #373739",
"=  c #3B3B3B",
"-  c #403F2E",
";  c #403F3A",
":  c #4C4A01",
">  c #4F4F1D",
",  c #595714",
"<  c #7C7A0C",
"1  c #6A671E",
"2  c #7F7E1D",
"3  c #787616",
"4  c #434225",
"5  c #4B4B29",
"6  c #545323",
"7  c #5D5B29",
"8  c #434334",
"9  c #4B4B3C",
"0  c #4D4C34",
"q  c #555430",
"w  c #585738",
"e  c #686726",
"r  c #706E28",
"t  c #737225",
"y  c #7A7829",
"u  c #6D6C3B",
"i  c #686737",
"p  c #706E36",
"a  c #79773F",
"s  c #7D7B3B",
"d  c #757336",
"f  c #3F3F41",
"g  c #434343",
"h  c #4A4A43",
"j  c #464648",
"k  c #4C4C4C",
"l  c #504F4C",
"z  c #555544",
"x  c #5C5B44",
"c  c #54534D",
"v  c #5C5C49",
"b  c #4E4E51",
"n  c #535353",
"m  c #5C5C5C",
"M  c #595954",
"N  c #636243",
"B  c #62614A",
"V  c #6D6C4C",
"C  c #6A6943",
"Z  c #706E43",
"A  c #747344",
"S  c #79794B",
"D  c #656555",
"F  c #6F6F52",
"G  c #63635F",
"H  c #6C6C5C",
"J  c #7F7E5F",
"K  c #767555",
"L  c #5F5F61",
"P  c #636363",
"I  c #6C6C63",
"U  c #6C6C6C",
"Y  c #676768",
"T  c #7B7B65",
"R  c #7A796B",
"E  c #6E6E70",
"W  c #737373",
"Q  c #777778",
"!  c #7B7B7A",
"~  c #7A7974",
"^  c #817E35",
"/  c #817F38",
"(  c #807F4B",
")  c #89870C",
"_  c #8A870C",
"`  c #999608",
"'  c #8C8B1F",
"]  c #8B8815",
"[  c #99961A",
"{  c #A39F07",
"}  c #A29D0B",
"|  c #A19E11",
" . c #ABA701",
".. c #A8A405",
"X. c #AAA51A",
"o. c #A6A21C",
"O. c #B1AB10",
"+. c #BAB418",
"@. c #848224",
"#. c #8B8823",
"$. c #84822C",
"%. c #908E23",
"&. c #95922A",
"*. c #9B9827",
"=. c #85843D",
"-. c #888537",
";. c #918F34",
":. c #928F3C",
">. c #949235",
",. c #989636",
"<. c #A39F22",
"1. c #AEAA21",
"2. c #ACA72B",
"3. c #B9B427",
"4. c #ACA834",
"5. c #A7A539",
"6. c #A9A537",
"7. c #B2AD37",
"8. c #B8B231",
"9. c #C3BC14",
"0. c #C7BF20",
"q. c #848343",
"w. c #8D8B4B",
"e. c #888749",
"r. c #9E9B49",
"t. c #8E8C54",
"y. c #8D8C5C",
"u. c #85835B",
"i. c #919054",
"p. c #9B9954",
"a. c #97945D",
"s. c #9A9959",
"d. c #A29F45",
"f. c #A19D59",
"g. c #A5A244",
"h. c #ADAB4C",
"j. c #AAA846",
"k. c #B0AC4A",
"l. c #A2A15F",
"z. c #A4A155",
"x. c #B7B355",
"c. c #BCB64B",
"v. c #8C8B64",
"b. c #84836A",
"n. c #8A8969",
"m. c #838264",
"M. c #959464",
"N. c #9D9B66",
"B. c #94936C",
"V. c #9A996C",
"C. c #999768",
"Z. c #858472",
"A. c #8B8B75",
"S. c #85857C",
"D. c #8B8A7C",
"F. c #888779",
"G. c #908F7C",
"H. c #949374",
"J. c #989673",
"K. c #999977",
"L. c #96967A",
"P. c #9C9B7B",
"I. c #A19E6C",
"U. c #A09F7A",
"Y. c #AEAC6B",
"T. c #A8A665",
"R. c #B7B463",
"E. c #A9A778",
"W. c #B0AE77",
"Q. c #B8B679",
"!. c #C0BC6C",
"~. c #D0CD79",
"^. c #C7C473",
"/. c #858584",
"(. c #8D8C84",
"). c #8C8C8C",
"_. c #858588",
"`. c #908F86",
"'. c #939285",
"]. c #989784",
"[. c #9B9A85",
"{. c #93938D",
"}. c #9C9C8E",
"|. c #959593",
" X c #9B9B94",
".X c #9C9B9A",
"XX c #97979A",
"oX c #ABAA85",
"OX c #A2A28C",
"+X c #AAA98A",
"@X c #A5A483",
"#X c #B1AF80",
"$X c #BEBC86",
"%X c #A3A294",
"&X c #A9A998",
"*X c #B7B692",
"=X c #B7B695",
"-X c #9E9EA1",
";X c #A3A3A4",
":X c #ABABA5",
">X c #ACACAC",
",X c #B3B3AC",
"<X c #B0B0A5",
"1X c #AFAFB1",
"2X c #B4B4B4",
"3X c #B6B6BA",
"4X c #BABABC",
"5X c #C0BFAD",
"6X c #C7C6B8",
"7X c #C5C5C4",
/* pixels */
"m m m M M *X9.+.$X~.6X3.S m 3X=XR.O.=.m % u ] V U V c x M n ",
"OXV.).U k ,X1.] g.h.&Xp.7 L &XL.B.3 i b + ` ` n.$X+.S [ e.-X",
"&Xw._.L h ,X,.S .XP.v.S.h f t.d. XR L f + ) a l.8.#.p A D v.",
".X_.Q g = 2X.XD.E.'.'.XXc % P U m n j $ & K S.K.H.T I ).).( ",
"W U j + * 3X;XC.o.(.|.{.n $ g * j k M 8 = _.H.T M.W W Q W E ",
"% o o O = XX>XH.i.).).m.n O D j.Q.3X5X:.@ L P n q & = % $ $ ",
"= * * * 8 E >X XB.).|.K k o K 3.B.c.s.e - ; f % * = = = = = ",
"V.J.C.T g b  Xy.w.S.).R m o ^ p.M.2.b.z 8 [ d k T p.K.L.s.V.",
"1.4.` C f g W ~ Q W E P j O D /.u.x b f & ] N j k.7.6.V.+.;.",
"L.r.3 D = g b j % % % o O X k M 8 . + O l H.I j [.[.B.'.r.=.",
"N.y.! U % 9 $.e m m * 7 y s {.&X[ ` ] @ _.7XS.h {.+XOXE.{.{.",
"w.n._.M % e ..( T I j M.R.T.W.oXa.&.< @ B.&Xa.6 q.b.X.$.! ! ",
"k j g o $ i =.S.$.7 =  X^.5.i.h.[.M.N # u.%Xb.@ @ + . . % g ",
"n B H W P W ;XM.u.B +  X!.[ F.XXP.&.x . Y.7XR * 5 5 5 @ % * ",
"v.1.v.+XZ.Q 3X'.(.H # ! 5.^ (.XXJ.#.c . l.$Xr 8 s ` ` _ p n ",
"=.i._.*.C Q 1X.X'.H   P *X6.t.).B.#.h . E.Y., k -X&.=.A H j ",
").-XL.] N E 1XI.C.H . k ,X:.T {.i.S f & ).u.: l ;X;.J ).Q g ",
";X;Xi.s I P 2X].'.I . & S.S.U G z m % * n 0 4 j n 9 h j j % ",
"OXY.V.&.V n ,XXX_.! 4 % j 9 & & & k k M P P i e x v c z l ; ",
">.,.'.@.w g >Xv.F.~ 5 O t ..{ { >.|.%X&X:XW.X.[ Y.x.R.X.u.j ",
"@.y..X(.l g >X{.).W 4 O 1 O. . .` [.1Xh.OX@XT.2.d.}.N.*.D = ",
"F D._.E = g .XXX|.U = X m =X' < d Z.:X XOXW.U.Z.L.Y. Xt.P % ",
"b n k j % g E E U m & X G 7XD.A.>.V.%X;XoXz.E.XXT.s..Xa.D % ",
"M x 6 8 * f % o o o O X k /.E T 3 ( ).}.5.:.'.XX X{.K.(.G % ",
"R 0.+.g.y.u.p 7 6 6 5 g l k = * = j M B w c n M M M M b g % ",
"S.Q.E.:X,X*XY.5.*.*._ n.-XV.`.L j = * % $ % $ o o o o o % j ",
"/.4X>Xk.s.3X4X<XE.}.P. X:Xx.A.k f r ) F W c t ] t Z H D m b ",
"W ! m 7 x P U P P U Q U P m n * % Z < Z.;XU v.V.z.oXj.J.).j ",
"j & o o o o O o O O O O o O O o $ 9 > k k j P T #.S p G G = ",
"h g f = = = % * % & * * & & % % * = ; % % * ; + + + o % + * "
};
