/* XPM */
static char *_4856a17c3504feef7150c365d6b7c11s9w7rGrOClzlqzqe[] = {
/* columns rows colors chars-per-pixel */
"30 30 256 2 ",
"   c black",
".  c #010101",
"X  c #020202",
"o  c gray1",
"O  c #040404",
"+  c gray2",
"@  c #060606",
"#  c #070707",
"$  c gray3",
"%  c #090909",
"&  c gray4",
"*  c #0B0B0B",
"=  c #0C0C0C",
"-  c gray5",
";  c #0E0E0E",
":  c gray6",
">  c #101010",
",  c #111111",
"<  c gray7",
"1  c #131313",
"2  c gray8",
"3  c #151515",
"4  c #161616",
"5  c gray9",
"6  c #181818",
"7  c #191919",
"8  c gray10",
"9  c #1B1B1B",
"0  c gray11",
"q  c #1D1D1D",
"w  c #1E1E1E",
"e  c gray12",
"r  c #202020",
"t  c gray13",
"y  c #222222",
"u  c #232323",
"i  c gray14",
"p  c #252525",
"a  c gray15",
"s  c #272727",
"d  c #282828",
"f  c gray16",
"g  c #2A2A2A",
"h  c gray17",
"j  c #2C2C2C",
"k  c #2D2D2D",
"l  c gray18",
"z  c #2F2F2F",
"x  c gray19",
"c  c #313131",
"v  c #323232",
"b  c gray20",
"n  c #343434",
"m  c #353535",
"M  c gray21",
"N  c #373737",
"B  c gray22",
"V  c #393939",
"C  c #3A3A3A",
"Z  c gray23",
"A  c #3C3C3C",
"S  c gray24",
"D  c #3E3E3E",
"F  c #3F3F3F",
"G  c gray25",
"H  c #414141",
"J  c gray26",
"K  c #434343",
"L  c #444444",
"P  c gray27",
"I  c #464646",
"U  c gray28",
"Y  c #484848",
"T  c #494949",
"R  c gray29",
"E  c #4B4B4B",
"W  c #4C4C4C",
"Q  c gray30",
"!  c #4E4E4E",
"~  c gray31",
"^  c #505050",
"/  c #515151",
"(  c gray32",
")  c #535353",
"_  c gray33",
"`  c #555555",
"'  c #565656",
"]  c gray34",
"[  c #585858",
"{  c gray35",
"}  c #5A5A5A",
"|  c #5B5B5B",
" . c gray36",
".. c #5D5D5D",
"X. c gray37",
"o. c #5F5F5F",
"O. c #606060",
"+. c gray38",
"@. c #626262",
"#. c gray39",
"$. c #646464",
"%. c #656565",
"&. c gray40",
"*. c #676767",
"=. c #686868",
"-. c DimGray",
";. c #6A6A6A",
":. c gray42",
">. c #6C6C6C",
",. c #6D6D6D",
"<. c gray43",
"1. c #6F6F6F",
"2. c gray44",
"3. c #717171",
"4. c #727272",
"5. c gray45",
"6. c #747474",
"7. c gray46",
"8. c #767676",
"9. c #777777",
"0. c gray47",
"q. c #797979",
"w. c gray48",
"e. c #7B7B7B",
"r. c #7C7C7C",
"t. c gray49",
"y. c #7E7E7E",
"u. c gray50",
"i. c #808080",
"p. c #818181",
"a. c gray51",
"s. c #838383",
"d. c #848484",
"f. c gray52",
"g. c #868686",
"h. c gray53",
"j. c #888888",
"k. c #898989",
"l. c gray54",
"z. c #8B8B8B",
"x. c gray55",
"c. c #8D8D8D",
"v. c #8E8E8E",
"b. c gray56",
"n. c #909090",
"m. c gray57",
"M. c #929292",
"N. c #939393",
"B. c gray58",
"V. c #959595",
"C. c gray59",
"Z. c #979797",
"A. c #989898",
"S. c gray60",
"D. c #9A9A9A",
"F. c #9B9B9B",
"G. c gray61",
"H. c #9D9D9D",
"J. c gray62",
"K. c #9F9F9F",
"L. c #A0A0A0",
"P. c gray63",
"I. c #A2A2A2",
"U. c gray64",
"Y. c #A4A4A4",
"T. c #A5A5A5",
"R. c gray65",
"E. c #A7A7A7",
"W. c gray66",
"Q. c #A9A9A9",
"!. c #AAAAAA",
"~. c gray67",
"^. c #ACACAC",
"/. c gray68",
"(. c #AEAEAE",
"). c #AFAFAF",
"_. c gray69",
"`. c #B1B1B1",
"'. c #B2B2B2",
"]. c gray70",
"[. c #B4B4B4",
"{. c gray71",
"}. c #B6B6B6",
"|. c #B7B7B7",
" X c gray72",
".X c #B9B9B9",
"XX c gray73",
"oX c #BBBBBB",
"OX c #BCBCBC",
"+X c gray74",
"@X c gray",
"#X c gray75",
"$X c #C0C0C0",
"%X c #C1C1C1",
"&X c gray76",
"*X c #C3C3C3",
"=X c gray77",
"-X c #C5C5C5",
";X c #C6C6C6",
":X c gray78",
">X c #C8C8C8",
",X c gray79",
"<X c #CACACA",
"1X c #CBCBCB",
"2X c gray80",
"3X c #CDCDCD",
"4X c #CECECE",
"5X c gray81",
"6X c #D0D0D0",
"7X c gray82",
"8X c #D2D2D2",
"9X c LightGray",
"0X c gray83",
"qX c #D5D5D5",
"wX c gray84",
"eX c #D7D7D7",
"rX c #D8D8D8",
"tX c gray85",
"yX c #DADADA",
"uX c gray86",
"iX c gainsboro",
"pX c #DDDDDD",
"aX c gray87",
"sX c #DFDFDF",
"dX c gray88",
"fX c #E1E1E1",
"gX c #E2E2E2",
"hX c gray89",
"jX c #E4E4E4",
"kX c gray90",
"lX c #E6E6E6",
"zX c #E7E7E7",
"xX c gray91",
"cX c #E9E9E9",
"vX c #EAEAEA",
"bX c gray92",
"nX c #ECECEC",
"mX c gray93",
"MX c #EEEEEE",
"NX c #EFEFEF",
"BX c gray94",
"VX c #F1F1F1",
"CX c gray95",
"ZX c #F3F3F3",
"AX c #F4F4F4",
"SX c gray96",
"DX c #F6F6F6",
"FX c gray97",
"GX c #F8F8F8",
"HX c #F9F9F9",
"JX c gray98",
"KX c #FBFBFB",
"LX c gray99",
"PX c #FDFDFD",
"IX c #FEFEFE",
"UX c white",
/* pixels */
"J K K q.N.m.M.M.m.M.c.m.x.z.l.k.{ D I I I I I I L J G G G G ",
"t.;.E (.1X=X;X:X*X&X{.$X_.Q.U.I.$.1.'.).).).)._.E.n.t.r.r.r.",
"W.4.L Q.).E.Y.Y.H.G.L.J.U.L.C.G.O.i.;X^.^./.^.(.].'.~.^./.!.",
"x.] J d.l.z.n.a.f.k.n.l.x.l.k.v.` y.oXC.b.m.M.m.N.x.C.S.Z.C.",
"+.D H P A Z Z C Z A D F G F G F C ,.|.N.C.V.B.m.N.v.z.l.v.g.",
"n g L R ! -.1.1.8.a.b.D.G.D.G.P.Z.*.z.5.-.%.=.%.*.| ^ T U U ",
"l x T _ a.|.{.).).{..X).R.Y.T. XK.L J S B B M N M b x h g g ",
";.#.&._ t.W.V.N.b.B.K.I.L.F.J.P.s.U ' ) U X.u.7.,.=.-.-.-.-.",
"`.`.S.( @.J.C.b.l.a.n.K.G.N.L.^.e.&.}.J...T.7X+X{.(.XX#X@X@X",
"G.F.a.! ( -.=.o.) T ' o.O.O.@.+.Q $.J.p.X.`.{.Z.b.j.A.D.M.C.",
"Z.b.:.E / I C n n x b M N Z C A J / O.( P u.S.M.A.B.m.M.j.v.",
"M.j.Y L +.>.*.} ^ y.G.D.A.A.A.A.A.D.M.3.+.) O.4.B.N.k.l.k.M.",
"5.) C -.'.OX!.d.[ J..XQ.!.(.~.~.!.~.!.T.[.W.K.2.X.} } ! ] &.",
"Z T k.%X).C.Z.N.O.7.S.v.C.V.z.x.M.Z.A.B.B.G.`.K.( V { ^ A x ",
"w.(.;X_.F.M.M.M.o.~ D.N.m.N.n.b.M.m.C.n.h.k.x.c.E -.<X:XH.Y ",
"m.[.H.V.Z.V.n.C.| S w.F.b.V.C.x.M.z.V.N.c.l.m.d.F :._.J.h.Q ",
"O.0.a.d.i.y.8.@.A K U =.,.7.z.x.N.x.v.v.v.x.B.r.M ,.).D.a.L ",
"..` ~ W W W Y J W _ W V x x S F G S F H E #.1.} k { g.9.-.A ",
"H.+X`.(./.Y.U.T.S.,.L J Y J Z C k s a f v N N N N M M N N m ",
"R.`.K.F.Z.B.M.V.M.0.b l { &.$.*.-.-.=.<.u.B.F.G.F.S.Z.C.y.T ",
"L.~.G.H.S.n.N.B.m.7.B p u.-X1X1X:X>X,X5XwXwX4X1X<X>X:X%Xu.F ",
"n.Y.D.G.J.Z.B.N.S.7.Z r w.>X~.Q.W./.).^.(.L.N.D.D.A.L.J.-.N ",
";.9.5.l.k.v.x.z.h.:.A w @.1XK.N.m.m.M.B.F.n.B.n.n.z.N.m.*.b ",
"R D V A F K K L K F c w ( ].B.c.v.m.b.v.m.N.b.M.b.n.b.g.#.v ",
"-.B.V.i.X.W B l j j j h P } U L E ;.e.8.6.6.7.q.0.0.7.8.] c ",
"k.%X[.*X#X].I.F.S.m.l.i.0.,.@.! D C F H G D S C B B B B N A ",
"l. XJ.Z.G.R.!.E.W.Q.E.(.{.@X^.} I h._.U.L.G.H.G.H.G.G.H.U.O.",
"s.A.a.e.p.f.y.w.8.w.y.a.a.l.9.F C G.%XW.K.I.K.I.U.U.K.U.H._ ",
"} K m m m m m m m m m m m m n l l ,.a.t.p.l.Z.V.F.S.Z.S.e.F ",
"E D N m m v l l l l l l l l l l v U U B n F E R E R E R F C "
};
