/* XPM */
static char *bf8536ff0631475ed4f0db136caa6361Kb3dwKiHznLt08PH[] = {
/* columns rows colors chars-per-pixel */
"30 30 178 2 ",
"   c #020202",
".  c #080701",
"X  c #0A0A03",
"o  c #070709",
"O  c #0C0C0C",
"+  c #141403",
"@  c #181700",
"#  c #1A1A04",
"$  c #13130D",
"%  c #1B1B0D",
"&  c #0E0E10",
"*  c #131313",
"=  c #191915",
"-  c #171718",
";  c #1B1B1B",
":  c #222204",
">  c #2B2A04",
",  c #27270E",
"<  c #2C2C0D",
"1  c #353500",
"2  c #3C3C02",
"3  c #36360C",
"4  c #38370C",
"5  c #232314",
"6  c #2A2A13",
"7  c #21211D",
"8  c #2C2C1B",
"9  c #323215",
"0  c #3B3A13",
"q  c #34341A",
"w  c #38371F",
"e  c #3C3C1B",
"r  c #1F1F20",
"t  c #232324",
"y  c #2C2C23",
"u  c #272729",
"i  c #2C2C2B",
"p  c #333323",
"a  c #3C3C24",
"s  c #32322C",
"d  c #383728",
"f  c #3D3C2C",
"g  c #2F2F30",
"h  c #333333",
"j  c #3B3B34",
"k  c #3C3C3B",
"l  c #444303",
"z  c #484604",
"x  c #4C4B03",
"c  c #45440C",
"v  c #4C4B0B",
"b  c #504E02",
"n  c #545305",
"m  c #5A5800",
"M  c #55530D",
"N  c #595709",
"B  c #5D5B08",
"V  c #424117",
"C  c #4C4B14",
"Z  c #44441B",
"A  c #48471A",
"S  c #4C4B1D",
"D  c #524F17",
"F  c #504F1E",
"G  c #535214",
"H  c #585610",
"J  c #5E5C11",
"K  c #54531C",
"L  c #5B5A1C",
"P  c #615F03",
"I  c #605F13",
"U  c #615F1E",
"Y  c #696706",
"T  c #6C6800",
"R  c #63630B",
"E  c #726F04",
"W  c #74740C",
"Q  c #6D6D13",
"!  c #63621A",
"~  c #6C6C1C",
"^  c #716E12",
"/  c #727216",
"(  c #7A7A19",
")  c #424225",
"_  c #4C4B22",
"`  c #44432B",
"'  c #48472B",
"]  c #4B4A2C",
"[  c #504F20",
"{  c #504F28",
"}  c #555323",
"|  c #595724",
" . c #5D5D26",
".. c #52522C",
"X. c #58572F",
"o. c #5D5D2A",
"O. c #434334",
"+. c #484734",
"@. c #4B4A34",
"#. c #44443B",
"$. c #484739",
"%. c #4B4B3C",
"&. c #535233",
"*. c #585737",
"=. c #5C5B34",
"-. c #54533B",
";. c #5C5C3B",
":. c #605E23",
">. c #605F32",
",. c #646324",
"<. c #686724",
"1. c #6A6924",
"2. c #68672A",
"3. c #6C6C2B",
"4. c #706F26",
"5. c #747426",
"6. c #646435",
"7. c #6C6B35",
"8. c #6C6C3C",
"9. c #444443",
"0. c #4C4C45",
"q. c #47484A",
"w. c gray29",
"e. c #4D4D4A",
"r. c #4F4F4B",
"t. c #4B4B4C",
"y. c #4C4C4C",
"u. c gray30",
"i. c #4F4F4C",
"p. c #4F4F4E",
"a. c #4C4C4B",
"s. c #504F43",
"d. c #504F45",
"f. c #565643",
"g. c #525244",
"h. c #515046",
"j. c #535345",
"k. c #585840",
"l. c #595941",
"z. c #595944",
"x. c #5C5C45",
"c. c #57574A",
"v. c #51514D",
"b. c #52524D",
"n. c #53534C",
"m. c #5B5B4A",
"M. c #5B5B4D",
"N. c #5B5B4A",
"B. c #4F4F50",
"V. c #4F4F51",
"C. c #515150",
"Z. c gray32",
"A. c #555552",
"S. c #575753",
"D. c gray34",
"F. c #565657",
"G. c #545453",
"H. c #585857",
"J. c #5B5B53",
"K. c #575759",
"L. c #5A5A5D",
"P. c #5D5D5E",
"I. c #5F5F5F",
"U. c #5C5C5C",
"Y. c #656546",
"T. c #636245",
"R. c #676749",
"E. c #67664B",
"W. c #606058",
"Q. c #66665B",
"!. c #62625D",
"~. c #60605E",
"^. c #5D5D60",
"/. c #626260",
"(. c #656565",
"). c #636362",
"_. c #696967",
"`. c #6C6C6C",
/* pixels */
"; - ; ; ; ) x z #.%.#.z 8 & k #.' x 9 ; o = % = ; ; ; - ; - ",
"#.#.k h u Q.^ B :.3.!.<.9 r P.z.o.x a t . M B +.m.~ ) K f 9.",
"N.} q.h r !.H e ] ] 0.%.5 * &...e.) j ;   m G &.5.R e K _ c.",
"v.0.y.u * /.%.O.#.#.+.C.t O f +.9.j t O   4 O.&.o.e f C.W.Y.",
"C.y.h O & (.L.-.! #.%.F.u o ; & O o       k %.O.c.%.C.F.I.H.",
"t ; o   O H.K...L 0.v.r.t   ; e ] w.F.e o h #.j 0 ; t - t u ",
"        & 9.L.e.g.D.C.` ;   p Q ;.R.z.S X o & o o           ",
"j i i 5 $ i A.+.F i.v.$.i o A ! z.( @.6 $ c w ; u f j j f j ",
"~ <.! f * r k O.9.w.w.t.i o w g.*.) j ; . b w ;  ./ 1.&.Q o.",
"} L z d & ; u i ; ; ; - O   ; i = O o   = ` s ; &.-._ O.J Z ",
"c.` #.9.O = q # * * o $ < 6 h #.l l < X h /.#.; w.x.v.c.s.$.",
"} @.K.h   > Y A #.j ; _ ,.} z.c.L N z + %.J.&.6 ] %.~ K q.9.",
"i s t O   > A #.Z 8 * 0.8.K S L O.f e + ` j.) % # % 1 : ; t ",
"; t 5 t t j 0.+.) q $ 0.7.M O.%.+.} f # >./.k * . . . .   o ",
"$.U -.A.9.k ).%.w.O.% k :.C #.V.@.G p # X.E.0 = 0 z x l 6 ; ",
"} K e. .O.k `.Z.F.$.+ u ;.L +.V.@.C 7 X -.6.3 t c.G S S a ; ",
"e.P.N.M d k `.;.A.O.# u (.H ` u.] ) * $ 0.] 1 7 K.K +.u.k * ",
"^._.+.Z k s `.M.n.#.> * w.#.q.#.d j $ o u 6 : ; h 8 u i t o ",
"W.T.+.} j t ^.U.N.9.,   & = $ & $ = * ; i t 5 6 5 * * * & o ",
"| G +.v q ; /.n.+.k ,   < n x n Z q.e.v.u.-.R n &.2.=.J f = ",
"C ' u.h.t * P.J.A.9.,   2 E T T M j.F.o.%.-._ R ,.m.=.B d & ",
"a n.L.Z.- * 0.Z.C.k $   7 x.C x V %.F.h.#.*.&.$.@.;.v.=.k . ",
"t i i g o * h k k h o   t _.0.%.} @.n.L.z.o.-.w.&.S C.*.O.o ",
"u 5 # $ o &             = q.9.O.x @.u.h.<.K d.C.0.q.-.%.h o ",
"f W W L ) f 9 : @ @ + O ; t O O o 7 i p 9 u h h i g i u ; o ",
"k 6.*.n.n.T.6.U H M x #.v.-.#.i - O .                   o ; ",
"k I.F.,...K.P.J.;.0.%.w.M.3.0.; - 0 l p i t 4 z 3 9 8 y u u ",
"h k i < 8 i h i g h h i u i t o o w l #.Z.j +.&.} -. .-.9.; ",
"r O                               5 3 t u 7 h f M a e k s - ",
"- * & & & o                       O $       O X . o . o o O "
};
